<svg width="22" height="28" viewBox="0 0 22 28" fill="none" xmlns="http://www.w3.org/2000/svg">
<path d="M12.3335 10.9998C11.7868 10.9998 11.3335 10.5465 11.3335 9.99984V0.666504H2.96016C1.50683 0.666504 0.333496 1.85317 0.333496 3.29317V24.7065C0.333496 26.1465 1.50683 27.3332 2.96016 27.3332H19.0402C20.4935 27.3332 21.6668 26.1465 21.6668 24.7065V10.9998H12.3335ZM14.4935 19.8398H12.3335V21.9998C12.3335 22.7332 11.7335 23.3332 11.0002 23.3332C10.2668 23.3332 9.66683 22.7332 9.66683 21.9998V19.8398H7.50683C6.76016 19.8398 6.1735 19.2398 6.1735 18.5065C6.1735 17.7598 6.76016 17.1732 7.50683 17.1732H9.66683V15.3332C9.66683 14.5998 10.2668 13.9998 11.0002 13.9998C11.7335 13.9998 12.3335 14.5998 12.3335 15.3332V17.1732H14.4935C15.2402 17.1732 15.8268 17.7598 15.8268 18.5065C15.8268 19.2398 15.2402 19.8398 14.4935 19.8398Z" fill="#3DBA11"/>
<path d="M13.3467 0.666504L21.6667 8.9865H13.3467V0.666504Z" fill="#3DBA11"/>
</svg>
