<svg width="26" height="22" viewBox="0 0 26 22" fill="none" xmlns="http://www.w3.org/2000/svg">
<path d="M23.1068 11.4666L13.7201 21.0399C13.5201 21.2266 13.2668 21.3333 13.0001 21.3333C12.7335 21.3333 12.4801 21.2266 12.2801 21.0399L2.86681 11.4399C0.360147 8.90661 0.37348 4.45328 2.89348 1.93328C5.41348 -0.586722 9.53348 -0.600055 12.0668 1.89328C12.4401 2.26661 12.7468 2.65328 13.0001 3.05328C13.2668 2.65328 13.5601 2.26661 13.9068 1.93328C15.1201 0.706611 16.7601 0.0266113 18.4935 0.0266113C20.2401 0.0266113 21.8668 0.706611 23.0935 1.93328C25.6401 4.46661 25.6401 8.93328 23.1068 11.4666Z" fill="#3DBA11"/>
</svg>
