<svg width="59" height="20" viewBox="0 0 59 20" fill="none" xmlns="http://www.w3.org/2000/svg">
<path d="M58.0341 10.4886H0.961891C0.432851 10.4886 0 10.0557 0 9.52671C0 8.99767 0.432851 8.56482 0.961891 8.56482H58.0341C58.5631 8.56482 58.996 8.99767 58.996 9.52671C58.996 10.0557 58.5792 10.4886 58.0341 10.4886Z" fill="black"/>
<path d="M58.0341 10.4885C57.7937 10.4885 57.5372 10.3923 57.3608 10.1999L48.8 1.6391C48.4313 1.27038 48.4313 0.661178 48.8 0.276422C49.1687 -0.0923033 49.7779 -0.0923033 50.1627 0.276422L58.7235 8.83725C59.0922 9.20598 59.0922 9.81517 58.7235 10.1999C58.5311 10.3923 58.2907 10.4885 58.0341 10.4885Z" fill="black"/>
<path d="M49.4733 19.0494C49.2328 19.0494 48.9763 18.9532 48.8 18.7608C48.4313 18.3921 48.4313 17.7829 48.8 17.3982L57.3608 8.83733C57.7295 8.46861 58.3387 8.46861 58.7235 8.83733C59.0922 9.20606 59.0922 9.81526 58.7235 10.2L50.1627 18.7608C49.9703 18.9532 49.7298 19.0494 49.4733 19.0494Z" fill="black"/>
</svg>
